<?xml version="1.0" encoding="UTF-8"?><svg id="a" xmlns="http://www.w3.org/2000/svg" viewBox="0 0 534.818 160.952"><ellipse cx="80.04" cy="77.869" rx="50.98" ry="50.484" fill="none" stroke="#1a1a1a" stroke-width="8.413"/><path d="M131.02,8.997H30.084C3.297,54.803,3.297,108.713,30.084,154.52" fill="none" stroke="#1a1a1a" stroke-width="8.905"/><ellipse cx="93.118" cy="69.136" rx="6.463" ry="6.4" fill="#1a1a1a"/><g isolation="isolate"><path d="M158.142,8.555l.535,3.838h-.769c-.368-2.128-1.94-3.328-4.315-3.328-2.542,0-4.014,1.649-4.014,3.838,0,5.607,10.302,4.018,10.302,10.944,0,3.868-3.846,6.086-7.86,6.086-1.673,0-3.479-.33-5.118-1.02l-.669-4.377h.769c.669,2.549,2.676,4.438,5.218,4.438,2.609,0,4.583-1.649,4.583-3.988,0-5.577-9.9-3.928-9.9-11.004,0-3.688,2.843-5.877,7.158-5.877,1.305,0,2.776.27,4.081.45Z" fill="#1a1a1a"/><path d="M164.832,7.716h.669c.334.81,1.371.839,2.007.839h15.386c.97,0,1.939-.24,2.073-.839h.703l-.301,4.768h-.903c-.134-1.409.201-2.699-2.709-2.699h-5.05v16.821c0,2.039,1.338,2.069,3.043,2.099v.78c-1.605,0-3.244-.06-4.883-.06-1.505,0-2.977.03-4.482.06v-.78c1.405-.06,3.044.12,3.044-2.069V9.785h-4.348c-2.81,0-3.177.54-3.746,2.699h-.87l.368-4.768Z" fill="#1a1a1a"/><path d="M189.917,8.555c1.605.03,3.244.06,4.95.06,1.806,0,1.974-.06,4.716-.06,5.051,0,7.626,2.249,7.626,5.307,0,2.249-1.739,4.318-4.749,5.127l4.014,5.367c.669.869,1.338,1.739,2.073,2.458,1.305,1.319,2.342,1.919,3.78,1.889v.78c-.87,0-1.739-.06-2.609-.06-.937,0-1.84.03-2.743.06-1.572-1.529-2.843-3.148-3.947-4.618-1.305-1.739-2.509-3.538-3.746-5.277h-3.044v6.986c0,1.829.97,2.159,3.044,2.128v.78c-1.539,0-3.077-.06-4.649-.06s-3.144.03-4.716.06v-.78c2.408.12,3.044-.779,3.044-2.128v-15.022c0-1.769-.703-2.249-3.044-2.219v-.78ZM196.238,18.48c.502.09,1.037.15,1.873.15,3.512,0,5.619-2.009,5.619-4.587,0-2.968-1.939-4.528-5.519-4.528-.669,0-1.037.06-1.974.18v8.785Z" fill="#1a1a1a"/><path d="M241.057,7.956l.937.84-3.579,3.148c1.84,1.979,2.877,4.348,2.877,6.957,0,5.787-5.018,11.034-12.041,11.034-3.111,0-5.854-1.049-7.994-2.848l-3.713,3.298-.937-.839,3.746-3.298c-1.906-1.919-3.043-4.438-3.043-7.106,0-5.757,4.984-11.034,12.041-11.034,3.211,0,6.154,1.2,8.161,2.969l3.545-3.119ZM222.561,24.267l12.944-11.423c-1.372-2.099-3.545-3.778-6.589-3.778-4.683,0-7.927,3.598-7.927,9.205,0,1.919.502,4.078,1.572,5.997ZM223.23,25.346c1.438,2.129,3.579,3.628,6.422,3.628,4.816,0,7.96-3.718,7.96-9.205,0-1.889-.501-3.928-1.472-5.816l-12.91,11.394Z" fill="#1a1a1a"/><path d="M247.914,8.555c1.17.03,2.308.06,3.445.06.769,0,1.505-.06,2.241-.06l8.998,16.821,5.017-9.145c1.204-2.188,2.709-5.007,4.014-7.676.87.03,1.706.06,2.575.06,1.037,0,2.074-.06,3.111-.06v.78c-2.375,0-2.977.27-2.977,2.279,0,4.467.401,12.473.469,14.752.066,1.919.803,2.338,3.612,2.338v.78c-1.807,0-3.612-.06-5.419-.06-1.672,0-3.311.03-4.983.06v-.78c1.204.03,2.04-.03,2.575-.27.703-.33.87-1.109.87-2.099l-.234-14.242h-.067l-7.626,14.183c-.234.419-.87,1.619-1.572,3.478h-.669c-.836-1.679-1.605-3.178-2.375-4.618-2.274-4.288-4.582-8.305-6.856-12.383h-.067c-.1,4.228-.301,11.304-.301,12.743,0,1.499.167,2.249.702,2.699.469.39,1.271.509,2.709.509v.78c-1.338,0-2.676-.06-4.014-.06-1.539,0-3.043.03-4.583.06v-.78c2.609,0,3.847-.75,3.98-4.498.101-3.148.368-8.335.368-12.143,0-2.279-.569-2.699-2.943-2.729v-.78Z" fill="#1a1a1a"/><path d="M294.573,8.555c2.107.06,5.987.06,8.997.06,2.442,0,5.72-.03,7.392-.06v4.468l-.669.15c-.468-2.758-2.007-3.658-5.218-3.658h-4.047v8.516h4.482c1.672,0,2.642-.78,2.742-2.579h.669c-.066.689-.134,1.919-.134,3.388,0,.81.167,2.398.134,3.298h-.669c-.033-2.488-.735-2.878-3.01-2.878h-4.215v5.367c0,3.208.268,3.898,3.579,3.898h1.906c1.271,0,1.94-.09,2.442-.18,1.505-.33,2.642-1.05,3.646-3.568l.803.12c-.535,1.529-1.004,2.878-1.372,4.587-3.177,0-6.388-.06-9.566-.06-2.643,0-5.251,0-7.894.06v-.78c2.743-.03,3.178-.33,3.178-3.178v-13.612c0-2.219-.435-2.519-3.178-2.579v-.78Z" fill="#1a1a1a"/><path d="M317.418,8.555c.97.03,2.308.06,3.479.06,2.375,0,3.11-.06,4.649-.06,3.78,0,8.496,1.379,8.496,5.967,0,3.358-3.445,5.997-7.225,5.997-.535,0-1.137-.03-1.672-.03v-.989c.368.06.937.06,1.037.06,1.104,0,1.505-.15,2.074-.42,1.104-.51,2.308-2.069,2.308-4.318,0-3.688-2.643-5.307-5.552-5.307-.334,0-1.07.03-1.372.09v16.971c0,1.829.937,2.128,3.077,2.128v.78c-1.639,0-3.277-.06-4.917-.06-1.505,0-2.977.03-4.482.06v-.78c2.107,0,3.044-.27,3.044-2.219v-14.362c0-2.339-.636-2.759-2.943-2.789v-.78Z" fill="#1a1a1a"/><path d="M338.422,8.555c1.539.03,3.044.06,4.582.06,1.605,0,3.211-.03,4.783-.06v.78c-2.074,0-3.044.24-3.044,2.189v14.902c0,1.739.569,2.309,3.044,2.278v.78c-1.572,0-3.11-.06-4.683-.06s-3.144.03-4.683.06v-.78c2.174,0,3.044-.3,3.044-2.219v-14.932c0-1.769-.703-2.249-3.044-2.219v-.78Z" fill="#1a1a1a"/><path d="M352.069,7.716h.669c.334.81,1.371.839,2.007.839h15.386c.97,0,1.939-.24,2.073-.839h.703l-.301,4.768h-.903c-.134-1.409.201-2.699-2.709-2.699h-5.05v16.821c0,2.039,1.338,2.069,3.043,2.099v.78c-1.605,0-3.244-.06-4.883-.06-1.505,0-2.977.03-4.482.06v-.78c1.405-.06,3.044.12,3.044-2.069V9.785h-4.348c-2.81,0-3.177.54-3.746,2.699h-.87l.368-4.768Z" fill="#1a1a1a"/><path d="M377.02,8.555c2.107.06,5.987.06,8.998.06,2.441,0,5.719-.03,7.392-.06v4.468l-.669.15c-.468-2.758-2.007-3.658-5.218-3.658h-4.047v8.516h4.481c1.673,0,2.643-.78,2.743-2.579h.669c-.067.689-.134,1.919-.134,3.388,0,.81.167,2.398.134,3.298h-.669c-.034-2.488-.736-2.878-3.011-2.878h-4.214v5.367c0,3.208.268,3.898,3.579,3.898h1.907c1.271,0,1.939-.09,2.441-.18,1.505-.33,2.643-1.05,3.646-3.568l.803.12c-.535,1.529-1.003,2.878-1.371,4.587-3.178,0-6.389-.06-9.566-.06-2.642,0-5.251,0-7.894.06v-.78c2.743-.03,3.177-.33,3.177-3.178v-13.612c0-2.219-.435-2.519-3.177-2.579v-.78Z" fill="#1a1a1a"/><path d="M421.404,9.695l.335,4.288h-.836c-.535-3.148-2.978-4.917-7.158-4.917-3.679,0-9.432,2.189-9.432,9.505,0,6.087,4.85,10.404,9.967,10.404,3.178,0,5.987-1.859,6.723-5.187l.77.18-.77,4.378c-1.438.779-5.184,1.589-7.425,1.589-7.76,0-12.744-4.527-12.744-11.274,0-6.086,6.021-10.554,12.676-10.554,2.709,0,5.318.78,7.894,1.589Z" fill="#1a1a1a"/><path d="M426.521,8.555c.97.03,2.308.06,3.479.06,2.375,0,3.11-.06,4.649-.06,3.779,0,8.496,1.379,8.496,5.967,0,3.358-3.445,5.997-7.225,5.997-.535,0-1.138-.03-1.673-.03v-.989c.368.06.937.06,1.037.06,1.104,0,1.505-.15,2.073-.42,1.104-.51,2.309-2.069,2.309-4.318,0-3.688-2.643-5.307-5.553-5.307-.334,0-1.07.03-1.371.09v16.971c0,1.829.937,2.128,3.077,2.128v.78c-1.64,0-3.278-.06-4.917-.06-1.505,0-2.977.03-4.482.06v-.78c2.107,0,3.044-.27,3.044-2.219v-14.362c0-2.339-.636-2.759-2.943-2.789v-.78Z" fill="#1a1a1a"/><path d="M447.526,8.555c1.605.03,3.211.06,4.851.06,1.505,0,3.01-.03,4.515-.06v.78c-1.906,0-3.043.15-3.043,2.159v6.537h13.513v-6.597c0-2.009-1.305-2.099-3.044-2.099v-.78c1.605.03,3.178.06,4.783.06,1.538,0,3.077-.06,4.582-.06v.78c-1.873,0-3.044.15-3.044,2.129v15.142c0,1.949,1.204,2.099,3.044,2.099v.78c-1.572-.03-3.145-.06-4.716-.06s-3.11.03-4.649.06v-.78c1.939,0,3.044-.209,3.044-2.099v-7.346h-13.513v7.256c0,1.859.836,2.188,3.043,2.188v.78c-1.639,0-3.244-.06-4.883-.06-1.505,0-3.01.03-4.482.06v-.78c2.141,0,3.044-.3,3.044-2.159v-15.112c0-2.159-1.505-2.039-3.044-2.099v-.78Z" fill="#1a1a1a"/><path d="M478.264,8.555c1.605.03,3.244.06,4.95.06,1.806,0,1.974-.06,4.716-.06,5.051,0,7.626,2.249,7.626,5.307,0,2.249-1.739,4.318-4.749,5.127l4.014,5.367c.669.869,1.338,1.739,2.073,2.458,1.305,1.319,2.342,1.919,3.78,1.889v.78c-.87,0-1.74-.06-2.609-.06-.937,0-1.84.03-2.742.06-1.572-1.529-2.844-3.148-3.947-4.618-1.305-1.739-2.509-3.538-3.746-5.277h-3.044v6.986c0,1.829.97,2.159,3.044,2.128v.78c-1.539,0-3.077-.06-4.649-.06s-3.144.03-4.716.06v-.78c2.408.12,3.044-.779,3.044-2.128v-15.022c0-1.769-.702-2.249-3.044-2.219v-.78ZM484.586,18.48c.502.09,1.037.15,1.873.15,3.513,0,5.619-2.009,5.619-4.587,0-2.968-1.939-4.528-5.519-4.528-.669,0-1.037.06-1.974.18v8.785Z" fill="#1a1a1a"/><path d="M529.639,18.9c0,5.637-4.884,11.034-12.041,11.034-6.891,0-11.941-5.277-11.941-10.794,0-5.667,4.917-11.034,12.041-11.034,6.689,0,11.941,5.127,11.941,10.794ZM518,28.974c4.782,0,7.96-3.688,7.96-9.205,0-4.767-3.077-10.704-8.696-10.704-4.649,0-7.927,3.568-7.927,9.175,0,4.977,3.211,10.734,8.663,10.734Z" fill="#1a1a1a"/></g></svg>