<?xml version="1.0" encoding="UTF-8"?><svg xmlns="http://www.w3.org/2000/svg" viewBox="0 0 840 220"><g id="a"><ellipse cx="86.339" cy="106.158" rx="53.963" ry="53.438" fill="none" stroke="#1a1a1a" stroke-width="8.905"/><path d="M134.336,33.086H33.4c-26.788,45.806-26.788,99.717,0,145.523" fill="none" stroke="#1a1a1a" stroke-width="8.905"/><ellipse cx="98.491" cy="95.558" rx="6.463" ry="6.4" fill="#1a1a1a"/><g isolation="isolate"><path d="M161.01,32.495l.517,3.709h-.744c-.355-2.057-1.875-3.216-4.171-3.216-2.457,0-3.88,1.594-3.88,3.709,0,5.418,9.958,3.883,9.958,10.576,0,3.738-3.718,5.882-7.598,5.882-1.617,0-3.363-.319-4.947-.985l-.646-4.23h.744c.646,2.463,2.587,4.289,5.044,4.289,2.522,0,4.43-1.594,4.43-3.854,0-5.389-9.571-3.796-9.571-10.634,0-3.564,2.749-5.679,6.919-5.679,1.261,0,2.684.261,3.945.435Z" fill="#1a1a1a"/><path d="M167.473,31.683h.646c.323.783,1.326.812,1.94.812h14.874c.938,0,1.875-.232,2.005-.812h.679l-.291,4.607h-.873c-.129-1.362.194-2.608-2.619-2.608h-4.882v16.256c0,1.97,1.293,2,2.942,2.028v.753c-1.552,0-3.136-.058-4.72-.058-1.455,0-2.878.029-4.333.058v-.753c1.358-.058,2.942.116,2.942-2v-16.285h-4.203c-2.716,0-3.072.521-3.622,2.608h-.84l.355-4.607Z" fill="#1a1a1a"/><path d="M191.718,32.495c1.552.029,3.136.058,4.785.058,1.746,0,1.908-.058,4.559-.058,4.882,0,7.372,2.173,7.372,5.129,0,2.173-1.681,4.172-4.591,4.955l3.88,5.187c.647.84,1.293,1.681,2.005,2.376,1.261,1.275,2.263,1.854,3.653,1.826v.753c-.84,0-1.681-.058-2.522-.058-.905,0-1.778.029-2.651.058-1.52-1.478-2.748-3.042-3.815-4.462-1.261-1.681-2.425-3.419-3.622-5.1h-2.942v6.751c0,1.768.938,2.086,2.942,2.057v.753c-1.487,0-2.975-.058-4.494-.058s-3.04.029-4.559.058v-.753c2.328.116,2.942-.753,2.942-2.057v-14.518c0-1.709-.679-2.173-2.942-2.144v-.753ZM197.829,42.086c.485.087,1.002.145,1.811.145,3.395,0,5.432-1.941,5.432-4.434,0-2.869-1.875-4.375-5.335-4.375-.646,0-1.002.058-1.908.174v8.49Z" fill="#1a1a1a"/><path d="M241.15,31.915l.905.812-3.459,3.042c1.778,1.913,2.781,4.202,2.781,6.723,0,5.592-4.85,10.663-11.64,10.663-3.007,0-5.658-1.014-7.728-2.752l-3.589,3.187-.905-.811,3.622-3.188c-1.843-1.854-2.942-4.289-2.942-6.868,0-5.563,4.817-10.663,11.64-10.663,3.104,0,5.95,1.159,7.89,2.869l3.427-3.014ZM223.27,47.678l12.513-11.04c-1.326-2.028-3.427-3.651-6.37-3.651-4.527,0-7.663,3.477-7.663,8.896,0,1.854.485,3.941,1.52,5.795ZM223.916,48.722c1.391,2.057,3.46,3.506,6.208,3.506,4.656,0,7.695-3.593,7.695-8.896,0-1.826-.485-3.796-1.422-5.622l-12.481,11.011Z" fill="#1a1a1a"/><path d="M247.772,32.495c1.132.029,2.231.058,3.331.058.744,0,1.455-.058,2.166-.058l8.698,16.256,4.85-8.838c1.164-2.115,2.619-4.839,3.88-7.418.841.029,1.649.058,2.49.058,1.002,0,2.005-.058,3.007-.058v.753c-2.295,0-2.877.261-2.877,2.202,0,4.317.388,12.054.453,14.256.065,1.854.776,2.26,3.492,2.26v.753c-1.746,0-3.492-.058-5.238-.058-1.617,0-3.201.029-4.817.058v-.753c1.164.029,1.972-.029,2.49-.261.679-.319.84-1.072.84-2.028l-.226-13.764h-.065l-7.372,13.706c-.226.406-.84,1.565-1.52,3.361h-.646c-.809-1.623-1.552-3.071-2.296-4.462-2.199-4.144-4.43-8.026-6.628-11.967h-.064c-.097,4.086-.291,10.924-.291,12.315,0,1.449.162,2.173.679,2.608.453.377,1.229.493,2.619.493v.753c-1.293,0-2.586-.058-3.88-.058-1.487,0-2.942.029-4.43.058v-.753c2.522,0,3.718-.725,3.848-4.347.097-3.042.355-8.055.355-11.735,0-2.202-.549-2.608-2.845-2.637v-.753Z" fill="#1a1a1a"/><path d="M292.869,32.495c2.037.058,5.788.058,8.698.058,2.36,0,5.529-.029,7.146-.058v4.317l-.646.145c-.453-2.666-1.94-3.535-5.044-3.535h-3.913v8.229h4.333c1.616,0,2.554-.753,2.651-2.492h.647c-.065.667-.129,1.854-.129,3.274,0,.782.162,2.318.129,3.188h-.647c-.032-2.405-.711-2.782-2.91-2.782h-4.074v5.187c0,3.101.259,3.767,3.46,3.767h1.843c1.229,0,1.875-.087,2.36-.174,1.455-.319,2.554-1.014,3.524-3.448l.776.116c-.517,1.478-.97,2.782-1.326,4.434-3.072,0-6.176-.058-9.247-.058-2.555,0-5.077,0-7.631.058v-.753c2.651-.029,3.072-.319,3.072-3.071v-13.155c0-2.145-.42-2.434-3.072-2.492v-.753Z" fill="#1a1a1a"/><path d="M314.947,32.495c.938.029,2.231.058,3.363.058,2.296,0,3.007-.058,4.495-.058,3.653,0,8.212,1.333,8.212,5.766,0,3.246-3.33,5.795-6.984,5.795-.518,0-1.1-.029-1.617-.029v-.956c.355.058.905.058,1.002.058,1.067,0,1.455-.145,2.004-.406,1.067-.492,2.231-1.999,2.231-4.172,0-3.564-2.554-5.129-5.367-5.129-.323,0-1.035.029-1.326.087v16.401c0,1.768.905,2.057,2.975,2.057v.753c-1.584,0-3.168-.058-4.753-.058-1.455,0-2.877.029-4.333.058v-.753c2.037,0,2.942-.261,2.942-2.144v-13.88c0-2.26-.615-2.666-2.846-2.695v-.753Z" fill="#1a1a1a"/><path d="M335.249,32.495c1.487.029,2.942.058,4.43.058,1.552,0,3.104-.029,4.624-.058v.753c-2.005,0-2.942.232-2.942,2.115v14.401c0,1.681.55,2.231,2.942,2.202v.753c-1.52,0-3.007-.058-4.527-.058s-3.039.029-4.526.058v-.753c2.102,0,2.942-.29,2.942-2.144v-14.431c0-1.709-.679-2.173-2.942-2.144v-.753Z" fill="#1a1a1a"/><path d="M348.438,31.683h.646c.323.783,1.326.812,1.94.812h14.874c.938,0,1.875-.232,2.005-.812h.679l-.291,4.607h-.873c-.129-1.362.194-2.608-2.619-2.608h-4.882v16.256c0,1.97,1.293,2,2.942,2.028v.753c-1.552,0-3.136-.058-4.72-.058-1.455,0-2.878.029-4.333.058v-.753c1.358-.058,2.942.116,2.942-2v-16.285h-4.203c-2.716,0-3.072.521-3.622,2.608h-.841l.356-4.607Z" fill="#1a1a1a"/><path d="M372.554,32.495c2.037.058,5.788.058,8.698.058,2.36,0,5.529-.029,7.146-.058v4.317l-.646.145c-.453-2.666-1.94-3.535-5.044-3.535h-3.913v8.229h4.333c1.616,0,2.554-.753,2.651-2.492h.647c-.065.667-.129,1.854-.129,3.274,0,.782.162,2.318.129,3.188h-.647c-.032-2.405-.711-2.782-2.91-2.782h-4.074v5.187c0,3.101.259,3.767,3.46,3.767h1.843c1.229,0,1.875-.087,2.36-.174,1.455-.319,2.554-1.014,3.524-3.448l.776.116c-.518,1.478-.97,2.782-1.326,4.434-3.072,0-6.176-.058-9.247-.058-2.555,0-5.077,0-7.631.058v-.753c2.651-.029,3.072-.319,3.072-3.071v-13.155c0-2.145-.42-2.434-3.072-2.492v-.753Z" fill="#1a1a1a"/><path d="M415.456,33.596l.323,4.144h-.809c-.518-3.042-2.878-4.752-6.919-4.752-3.557,0-9.118,2.115-9.118,9.186,0,5.882,4.688,10.055,9.635,10.055,3.072,0,5.788-1.796,6.499-5.013l.744.174-.744,4.23c-1.39.753-5.012,1.536-7.178,1.536-7.501,0-12.319-4.375-12.319-10.895,0-5.882,5.82-10.2,12.255-10.2,2.619,0,5.141.753,7.631,1.536Z" fill="#1a1a1a"/><path d="M420.396,32.495c.938.029,2.231.058,3.363.058,2.295,0,3.007-.058,4.494-.058,3.653,0,8.213,1.333,8.213,5.766,0,3.246-3.331,5.795-6.984,5.795-.518,0-1.1-.029-1.617-.029v-.956c.356.058.905.058,1.003.058,1.066,0,1.455-.145,2.005-.406,1.066-.492,2.23-1.999,2.23-4.172,0-3.564-2.554-5.129-5.367-5.129-.323,0-1.034.029-1.325.087v16.401c0,1.768.905,2.057,2.975,2.057v.753c-1.585,0-3.169-.058-4.754-.058-1.454,0-2.877.029-4.332.058v-.753c2.037,0,2.942-.261,2.942-2.144v-13.88c0-2.26-.614-2.666-2.846-2.695v-.753Z" fill="#1a1a1a"/><path d="M440.698,32.495c1.552.029,3.104.058,4.688.058,1.455,0,2.91-.029,4.364-.058v.753c-1.843,0-2.941.145-2.941,2.086v6.317h13.062v-6.375c0-1.941-1.262-2.028-2.942-2.028v-.753c1.552.029,3.071.058,4.623.058,1.487,0,2.975-.058,4.43-.058v.753c-1.811,0-2.942.145-2.942,2.057v14.633c0,1.883,1.164,2.028,2.942,2.028v.753c-1.52-.029-3.039-.058-4.559-.058s-3.007.029-4.494.058v-.753c1.875,0,2.942-.203,2.942-2.028v-7.099h-13.062v7.012c0,1.796.808,2.115,2.941,2.115v.753c-1.584,0-3.136-.058-4.721-.058-1.454,0-2.909.029-4.332.058v-.753c2.069,0,2.942-.29,2.942-2.086v-14.604c0-2.086-1.455-1.97-2.942-2.028v-.753Z" fill="#1a1a1a"/><path d="M470.407,32.495c1.552.029,3.137.058,4.785.058,1.746,0,1.908-.058,4.56-.058,4.882,0,7.371,2.173,7.371,5.129,0,2.173-1.681,4.172-4.591,4.955l3.88,5.187c.646.84,1.293,1.681,2.005,2.376,1.261,1.275,2.264,1.854,3.653,1.826v.753c-.841,0-1.681-.058-2.521-.058-.905,0-1.778.029-2.651.058-1.52-1.478-2.749-3.042-3.815-4.462-1.261-1.681-2.425-3.419-3.621-5.1h-2.942v6.751c0,1.768.938,2.086,2.942,2.057v.753c-1.487,0-2.976-.058-4.495-.058s-3.039.029-4.559.058v-.753c2.328.116,2.942-.753,2.942-2.057v-14.518c0-1.709-.679-2.173-2.942-2.144v-.753ZM476.519,42.086c.484.087,1.002.145,1.811.145,3.395,0,5.432-1.941,5.432-4.434,0-2.869-1.875-4.375-5.335-4.375-.646,0-1.002.058-1.907.174v8.49Z" fill="#1a1a1a"/><path d="M520.065,42.492c0,5.447-4.721,10.663-11.641,10.663-6.66,0-11.543-5.1-11.543-10.432,0-5.477,4.753-10.663,11.641-10.663,6.467,0,11.543,4.955,11.543,10.432ZM508.813,52.228c4.623,0,7.695-3.564,7.695-8.896,0-4.607-2.975-10.345-8.407-10.345-4.494,0-7.663,3.448-7.663,8.867,0,4.81,3.104,10.374,8.375,10.374Z" fill="#1a1a1a"/></g></g></svg>