<?xml version="1.0" encoding="UTF-8"?><svg id="a" xmlns="http://www.w3.org/2000/svg" viewBox="0 0 547.513 170.633"><ellipse cx="86.703" cy="85.317" rx="44.317" ry="43.886" fill="none" stroke="#1a1a1a" stroke-width="8.413"/><path d="M131.02,14.356H30.084C3.297,60.162,3.297,114.073,30.084,159.879" fill="none" stroke="#1a1a1a" stroke-width="8.905"/><ellipse cx="95.057" cy="80.717" rx="6.463" ry="6.4" fill="#1a1a1a"/><g isolation="isolate"><path d="M154.567,13.045l.547,3.924h-.787c-.376-2.177-1.983-3.403-4.411-3.403-2.599,0-4.103,1.686-4.103,3.924,0,5.732,10.532,4.108,10.532,11.189,0,3.955-3.932,6.223-8.036,6.223-1.71,0-3.556-.337-5.232-1.042l-.684-4.476h.787c.684,2.605,2.736,4.537,5.334,4.537,2.667,0,4.685-1.686,4.685-4.077,0-5.702-10.122-4.016-10.122-11.25,0-3.771,2.907-6.008,7.318-6.008,1.333,0,2.838.276,4.172.46Z" fill="#1a1a1a"/><path d="M161.407,12.187h.684c.342.828,1.402.858,2.052.858h15.73c.992,0,1.983-.246,2.12-.858h.718l-.308,4.874h-.923c-.137-1.441.205-2.759-2.77-2.759h-5.164v17.197c0,2.084,1.368,2.115,3.112,2.146v.797c-1.642,0-3.317-.062-4.993-.062-1.539,0-3.043.031-4.582.062v-.797c1.436-.062,3.112.123,3.112-2.115V14.302h-4.445c-2.873,0-3.249.552-3.83,2.759h-.889l.376-4.874Z" fill="#1a1a1a"/><path d="M187.053,13.045c1.642.03,3.317.061,5.061.061,1.846,0,2.018-.061,4.821-.061,5.164,0,7.796,2.299,7.796,5.426,0,2.299-1.778,4.414-4.855,5.242l4.104,5.487c.684.889,1.368,1.778,2.12,2.514,1.333,1.349,2.394,1.962,3.864,1.932v.797c-.889,0-1.778-.062-2.667-.062-.958,0-1.881.031-2.804.062-1.607-1.563-2.907-3.219-4.035-4.721-1.333-1.778-2.564-3.618-3.83-5.396h-3.112v7.143c0,1.87.992,2.207,3.112,2.177v.797c-1.573,0-3.146-.062-4.753-.062s-3.214.031-4.822.062v-.797c2.462.123,3.112-.797,3.112-2.177v-15.358c0-1.809-.718-2.299-3.112-2.269v-.797ZM193.516,23.192c.513.092,1.06.153,1.915.153,3.59,0,5.745-2.054,5.745-4.69,0-3.035-1.983-4.629-5.642-4.629-.684,0-1.06.061-2.018.184v8.982Z" fill="#1a1a1a"/><path d="M239.338,12.432l.958.858-3.659,3.219c1.88,2.023,2.94,4.445,2.94,7.112,0,5.917-5.129,11.281-12.31,11.281-3.18,0-5.984-1.073-8.172-2.913l-3.796,3.372-.958-.858,3.83-3.372c-1.949-1.962-3.112-4.537-3.112-7.266,0-5.886,5.095-11.281,12.31-11.281,3.283,0,6.292,1.226,8.344,3.035l3.625-3.188ZM220.428,29.108l13.233-11.68c-1.402-2.146-3.625-3.862-6.736-3.862-4.788,0-8.104,3.679-8.104,9.411,0,1.962.513,4.169,1.607,6.131ZM221.112,30.212c1.471,2.177,3.659,3.709,6.565,3.709,4.924,0,8.139-3.801,8.139-9.411,0-1.931-.513-4.016-1.505-5.947l-13.199,11.649Z" fill="#1a1a1a"/><path d="M246.349,13.045c1.197.03,2.359.061,3.522.061.787,0,1.539-.061,2.291-.061l9.199,17.197,5.129-9.35c1.231-2.238,2.77-5.12,4.104-7.848.889.03,1.744.061,2.633.061,1.06,0,2.12-.061,3.18-.061v.797c-2.428,0-3.043.276-3.043,2.33,0,4.568.41,12.752.479,15.083.068,1.962.821,2.391,3.693,2.391v.797c-1.847,0-3.693-.062-5.54-.062-1.709,0-3.385.031-5.095.062v-.797c1.231.03,2.086-.031,2.633-.276.718-.337.889-1.134.889-2.146l-.239-14.561h-.068l-7.796,14.5c-.24.429-.889,1.656-1.607,3.556h-.684c-.855-1.717-1.642-3.25-2.428-4.721-2.325-4.384-4.685-8.492-7.01-12.661h-.068c-.103,4.322-.308,11.557-.308,13.028,0,1.533.171,2.299.718,2.759.479.399,1.299.521,2.77.521v.797c-1.368,0-2.736-.062-4.104-.062-1.573,0-3.112.031-4.685.062v-.797c2.667,0,3.932-.767,4.069-4.598.103-3.219.376-8.522.376-12.416,0-2.33-.582-2.759-3.009-2.79v-.797Z" fill="#1a1a1a"/><path d="M294.053,13.045c2.154.061,6.121.061,9.198.061,2.497,0,5.848-.031,7.557-.061v4.567l-.684.153c-.479-2.82-2.052-3.74-5.334-3.74h-4.138v8.706h4.582c1.71,0,2.702-.797,2.804-2.637h.684c-.068.705-.137,1.962-.137,3.464,0,.828.171,2.452.137,3.372h-.684c-.034-2.544-.752-2.943-3.078-2.943h-4.309v5.487c0,3.28.273,3.985,3.659,3.985h1.949c1.299,0,1.983-.092,2.496-.184,1.539-.337,2.702-1.073,3.728-3.648l.821.123c-.547,1.563-1.026,2.943-1.402,4.69-3.249,0-6.531-.062-9.78-.062-2.701,0-5.369,0-8.07.062v-.797c2.804-.031,3.249-.337,3.249-3.25v-13.917c0-2.269-.444-2.575-3.249-2.636v-.797Z" fill="#1a1a1a"/><path d="M317.409,13.045c.992.03,2.359.061,3.556.061,2.428,0,3.18-.061,4.753-.061,3.864,0,8.686,1.41,8.686,6.1,0,3.434-3.522,6.131-7.386,6.131-.547,0-1.163-.03-1.71-.03v-1.012c.376.061.958.061,1.06.061,1.128,0,1.539-.153,2.12-.429,1.128-.521,2.359-2.115,2.359-4.414,0-3.771-2.701-5.426-5.676-5.426-.342,0-1.094.03-1.402.092v17.351c0,1.87.958,2.177,3.146,2.177v.797c-1.676,0-3.351-.062-5.027-.062-1.539,0-3.043.031-4.582.062v-.797c2.154,0,3.112-.276,3.112-2.269v-14.684c0-2.391-.65-2.82-3.009-2.851v-.797Z" fill="#1a1a1a"/><path d="M338.884,13.045c1.573.03,3.112.061,4.685.061,1.642,0,3.283-.031,4.89-.061v.797c-2.12,0-3.112.245-3.112,2.238v15.235c0,1.778.581,2.36,3.112,2.33v.797c-1.607,0-3.18-.062-4.788-.062s-3.214.031-4.787.062v-.797c2.223,0,3.112-.307,3.112-2.269v-15.266c0-1.809-.718-2.299-3.112-2.269v-.797Z" fill="#1a1a1a"/><path d="M352.836,12.187h.684c.342.828,1.402.858,2.052.858h15.73c.992,0,1.983-.246,2.12-.858h.718l-.308,4.874h-.923c-.137-1.441.205-2.759-2.77-2.759h-5.164v17.197c0,2.084,1.368,2.115,3.112,2.146v.797c-1.642,0-3.317-.062-4.993-.062-1.539,0-3.043.031-4.582.062v-.797c1.436-.062,3.112.123,3.112-2.115V14.302h-4.445c-2.873,0-3.249.552-3.83,2.759h-.889l.376-4.874Z" fill="#1a1a1a"/><path d="M378.346,13.045c2.154.061,6.121.061,9.198.061,2.497,0,5.848-.031,7.557-.061v4.567l-.684.153c-.479-2.82-2.052-3.74-5.334-3.74h-4.138v8.706h4.582c1.71,0,2.702-.797,2.804-2.637h.684c-.068.705-.137,1.962-.137,3.464,0,.828.171,2.452.137,3.372h-.684c-.034-2.544-.752-2.943-3.078-2.943h-4.309v5.487c0,3.28.273,3.985,3.659,3.985h1.949c1.299,0,1.983-.092,2.496-.184,1.539-.337,2.702-1.073,3.728-3.648l.821.123c-.547,1.563-1.026,2.943-1.402,4.69-3.249,0-6.531-.062-9.78-.062-2.701,0-5.369,0-8.07.062v-.797c2.804-.031,3.249-.337,3.249-3.25v-13.917c0-2.269-.444-2.575-3.249-2.636v-.797Z" fill="#1a1a1a"/><path d="M423.722,14.21l.342,4.384h-.854c-.547-3.219-3.044-5.027-7.318-5.027-3.761,0-9.643,2.238-9.643,9.718,0,6.223,4.958,10.637,10.19,10.637,3.248,0,6.12-1.901,6.873-5.303l.786.184-.786,4.476c-1.471.797-5.301,1.625-7.591,1.625-7.933,0-13.028-4.629-13.028-11.526,0-6.223,6.155-10.791,12.959-10.791,2.77,0,5.437.797,8.07,1.625Z" fill="#1a1a1a"/><path d="M428.955,13.045c.992.03,2.36.061,3.557.061,2.428,0,3.181-.061,4.753-.061,3.864,0,8.686,1.41,8.686,6.1,0,3.434-3.521,6.131-7.386,6.131-.547,0-1.163-.03-1.71-.03v-1.012c.376.061.958.061,1.061.061,1.128,0,1.538-.153,2.12-.429,1.128-.521,2.359-2.115,2.359-4.414,0-3.771-2.702-5.426-5.677-5.426-.342,0-1.095.03-1.402.092v17.351c0,1.87.958,2.177,3.146,2.177v.797c-1.676,0-3.352-.062-5.026-.062-1.539,0-3.044.031-4.583.062v-.797c2.154,0,3.112-.276,3.112-2.269v-14.684c0-2.391-.649-2.82-3.01-2.851v-.797Z" fill="#1a1a1a"/><path d="M450.43,13.045c1.642.03,3.283.061,4.959.061,1.538,0,3.077-.031,4.616-.061v.797c-1.949,0-3.112.153-3.112,2.207v6.683h13.815v-6.744c0-2.054-1.334-2.146-3.112-2.146v-.797c1.642.03,3.249.061,4.89.061,1.573,0,3.146-.061,4.686-.061v.797c-1.915,0-3.112.153-3.112,2.176v15.481c0,1.993,1.231,2.146,3.112,2.146v.797c-1.607-.031-3.215-.062-4.822-.062s-3.18.031-4.753.062v-.797c1.983,0,3.112-.215,3.112-2.146v-7.51h-13.815v7.418c0,1.9.855,2.238,3.112,2.238v.797c-1.676,0-3.317-.062-4.992-.062-1.539,0-3.078.031-4.583.062v-.797c2.188,0,3.112-.307,3.112-2.208v-15.45c0-2.208-1.539-2.084-3.112-2.146v-.797Z" fill="#1a1a1a"/><path d="M481.857,13.045c1.641.03,3.316.061,5.061.061,1.847,0,2.018-.061,4.821-.061,5.163,0,7.797,2.299,7.797,5.426,0,2.299-1.778,4.414-4.856,5.242l4.104,5.487c.685.889,1.368,1.778,2.12,2.514,1.334,1.349,2.394,1.962,3.864,1.932v.797c-.889,0-1.778-.062-2.667-.062-.958,0-1.881.031-2.804.062-1.607-1.563-2.907-3.219-4.035-4.721-1.334-1.778-2.564-3.618-3.83-5.396h-3.111v7.143c0,1.87.991,2.207,3.111,2.177v.797c-1.573,0-3.146-.062-4.753-.062s-3.215.031-4.821.062v-.797c2.462.123,3.111-.797,3.111-2.177v-15.358c0-1.809-.718-2.299-3.111-2.269v-.797ZM488.32,23.192c.513.092,1.06.153,1.914.153,3.591,0,5.745-2.054,5.745-4.69,0-3.035-1.983-4.629-5.643-4.629-.684,0-1.06.061-2.017.184v8.982Z" fill="#1a1a1a"/><path d="M534.38,23.621c0,5.763-4.992,11.281-12.311,11.281-7.044,0-12.207-5.396-12.207-11.036,0-5.793,5.026-11.281,12.311-11.281,6.839,0,12.207,5.242,12.207,11.036ZM522.481,33.921c4.89,0,8.138-3.771,8.138-9.411,0-4.874-3.146-10.944-8.891-10.944-4.753,0-8.104,3.648-8.104,9.38,0,5.089,3.282,10.975,8.856,10.975Z" fill="#1a1a1a"/></g></svg>